<svg width="256" height="256" viewBox="0 0 256 256" fill="none" xmlns="http://www.w3.org/2000/svg">
<path d="M130.917 104.75C123.224 100.354 115.495 95.9586 104.667 94.1059V43.1375C116.953 39.7227 136.531 35 151.333 35C186.333 35 233 52.4375 233 81.5C233 110.562 189.396 116.375 168.833 116.375C151.333 116.375 141.125 110.562 130.917 104.75ZM69.6667 46.625H87.1667V93.125H69.6667C56.7969 93.125 46.3333 82.6988 46.3333 69.875C46.3333 57.0512 56.7969 46.625 69.6667 46.625ZM107.583 151.25C117.792 145.438 128 139.625 145.5 139.625C166.063 139.625 209.667 145.438 209.667 174.5C209.667 203.562 163 221 128 221C113.234 221 93.6198 216.277 81.3333 212.862V161.894C92.1615 160.005 99.8906 155.609 107.583 151.214V151.25ZM46.3333 209.375C33.4635 209.375 23 198.949 23 186.125C23 173.301 33.4635 162.875 46.3333 162.875H63.8333V209.375H46.3333Z" fill="#404040"/>
</svg>
