<svg width="32" height="32" viewBox="0 0 32 32" fill="none" xmlns="http://www.w3.org/2000/svg">
<path d="M16.3611 13.125C15.4087 12.5814 14.4517 12.0379 13.1111 11.8088V5.50625C14.6323 5.08398 17.0562 4.5 18.8889 4.5C23.2222 4.5 29 6.65625 29 10.25C29 13.8438 23.6014 14.5625 21.0556 14.5625C18.8889 14.5625 17.625 13.8438 16.3611 13.125ZM8.77778 5.9375H10.9444V11.6875H8.77778C7.18437 11.6875 5.88889 10.3982 5.88889 8.8125C5.88889 7.22676 7.18437 5.9375 8.77778 5.9375ZM13.4722 18.875C14.7361 18.1562 16 17.4375 18.1667 17.4375C20.7125 17.4375 26.1111 18.1562 26.1111 21.75C26.1111 25.3438 20.3333 27.5 16 27.5C14.1719 27.5 11.7434 26.916 10.2222 26.4937V20.1912C11.5628 19.9576 12.5198 19.4141 13.4722 18.8705V18.875ZM5.88889 26.0625C4.29549 26.0625 3 24.7732 3 23.1875C3 21.6018 4.29549 20.3125 5.88889 20.3125H8.05556V26.0625H5.88889Z" fill="#404040"/>
</svg>

